<?xml version="1.0" encoding="UTF-8"?>
<!DOCTYPE svg PUBLIC "-//W3C//DTD SVG 1.1//EN" "http://www.w3.org/Graphics/SVG/1.1/DTD/svg11.dtd">
<svg xmlns="http://www.w3.org/2000/svg" version="1.1" width="225px" height="225px" style="shape-rendering:geometricPrecision; text-rendering:geometricPrecision; image-rendering:optimizeQuality; fill-rule:evenodd; clip-rule:evenodd" xmlns:xlink="http://www.w3.org/1999/xlink">
<g><path style="opacity:1" fill="#fcfcfc" d="M -0.5,-0.5 C 19.5,-0.5 39.5,-0.5 59.5,-0.5C 68.8223,26.4656 78.1556,53.4656 87.5,80.5C 97.2189,84.462 107.052,88.1287 117,91.5C 118.543,90.4228 118.543,89.0894 117,87.5C 100.707,59.0812 84.5401,30.5812 68.5,2C 66.6854,1.24316 65.0188,0.409824 63.5,-0.5C 102.167,-0.5 140.833,-0.5 179.5,-0.5C 175.657,0.754663 171.99,2.588 168.5,5C 150,23.5 131.5,42 113,60.5C 112.333,61.5 112.333,62.5 113,63.5C 115.5,68 118,72.5 120.5,77C 121.167,77.6667 121.833,77.6667 122.5,77C 139.167,60.3333 155.833,43.6667 172.5,27C 178.978,23.3541 184.978,24.0207 190.5,29C 199.681,38.0142 208.681,47.1808 217.5,56.5C 221.167,52.7869 223.501,48.4535 224.5,43.5C 224.5,75.1667 224.5,106.833 224.5,138.5C 218.632,123.487 207.632,114.321 191.5,111C 181.38,108.162 171.713,109.162 162.5,114C 160.5,114.667 158.5,114.667 156.5,114C 104.245,95.5264 51.9115,77.3597 -0.5,59.5C -0.5,39.5 -0.5,19.5 -0.5,-0.5 Z"/></g>
<g><path style="opacity:1" fill="#fbfbfb" d="M 186.5,-0.5 C 199.167,-0.5 211.833,-0.5 224.5,-0.5C 224.5,11.5 224.5,23.5 224.5,35.5C 223.379,33.2585 222.213,30.9252 221,28.5C 213.167,19.3333 204.667,10.8333 195.5,3C 192.429,1.70435 189.429,0.53768 186.5,-0.5 Z"/></g>
<g><path style="opacity:1" fill="#040404" d="M 59.5,-0.5 C 60.8333,-0.5 62.1667,-0.5 63.5,-0.5C 65.0188,0.409824 66.6854,1.24316 68.5,2C 84.5401,30.5812 100.707,59.0812 117,87.5C 118.543,89.0894 118.543,90.4228 117,91.5C 107.052,88.1287 97.2189,84.462 87.5,80.5C 78.1556,53.4656 68.8223,26.4656 59.5,-0.5 Z"/></g>
<g><path style="opacity:1" fill="#030303" d="M 179.5,-0.5 C 181.833,-0.5 184.167,-0.5 186.5,-0.5C 189.429,0.53768 192.429,1.70435 195.5,3C 204.667,10.8333 213.167,19.3333 221,28.5C 222.213,30.9252 223.379,33.2585 224.5,35.5C 224.5,38.1667 224.5,40.8333 224.5,43.5C 223.501,48.4535 221.167,52.7869 217.5,56.5C 208.681,47.1808 199.681,38.0142 190.5,29C 184.978,24.0207 178.978,23.3541 172.5,27C 155.833,43.6667 139.167,60.3333 122.5,77C 121.833,77.6667 121.167,77.6667 120.5,77C 118,72.5 115.5,68 113,63.5C 112.333,62.5 112.333,61.5 113,60.5C 131.5,42 150,23.5 168.5,5C 171.99,2.588 175.657,0.754663 179.5,-0.5 Z"/></g>
<g><path style="opacity:1" fill="#151515" d="M 169.5,40.5 C 181.747,51.2436 193.58,62.577 205,74.5C 206.988,80.8379 204.821,82.6713 198.5,80C 187.667,69.1667 176.833,58.3333 166,47.5C 166.827,45.1226 167.994,42.7892 169.5,40.5 Z"/></g>
<g><path style="opacity:1" fill="#0d0d0d" d="M 154.5,56.5 C 165.881,66.7184 177.047,77.0517 188,87.5C 189.182,89.3436 190.349,91.1769 191.5,93C 190.202,96.2052 187.868,97.2052 184.5,96C 173.333,84.8333 162.167,73.6667 151,62.5C 150.333,61.8333 150.333,61.1667 151,60.5C 152.376,59.2949 153.542,57.9616 154.5,56.5 Z"/></g>
<g><path style="opacity:1" fill="#040404" d="M -0.5,59.5 C 51.9115,77.3597 104.245,95.5264 156.5,114C 158.5,114.667 160.5,114.667 162.5,114C 171.713,109.162 181.38,108.162 191.5,111C 207.632,114.321 218.632,123.487 224.5,138.5C 224.5,140.167 224.5,141.833 224.5,143.5C 222.454,150.049 218.12,154.549 211.5,157C 190.899,162.355 173.399,157.189 159,141.5C 156.363,137.928 154.697,133.928 154,129.5C 146.495,124.668 138.329,121.335 129.5,119.5C 128.167,119.667 126.833,119.833 125.5,120C 121.092,126.441 115.092,129.108 107.5,128C 72.0903,108.547 36.9236,88.7132 2,68.5C 1.24316,66.6854 0.409824,65.0188 -0.5,63.5C -0.5,62.1667 -0.5,60.8333 -0.5,59.5 Z"/></g>
<g><path style="opacity:1" fill="#fcfcfc" d="M -0.5,63.5 C 0.409824,65.0188 1.24316,66.6854 2,68.5C 36.9236,88.7132 72.0903,108.547 107.5,128C 115.092,129.108 121.092,126.441 125.5,120C 126.833,119.833 128.167,119.667 129.5,119.5C 138.329,121.335 146.495,124.668 154,129.5C 154.697,133.928 156.363,137.928 159,141.5C 173.399,157.189 190.899,162.355 211.5,157C 218.12,154.549 222.454,150.049 224.5,143.5C 224.5,170.5 224.5,197.5 224.5,224.5C 197.5,224.5 170.5,224.5 143.5,224.5C 151.657,221.832 156.49,216.165 158,207.5C 161.203,188.399 155.703,172.232 141.5,159C 137.928,156.363 133.928,154.697 129.5,154C 128.667,153.167 127.833,152.333 127,151.5C 124.925,145.689 122.592,140.022 120,134.5C 116.043,136.219 111.876,136.886 107.5,136.5C 110.027,144.083 112.36,151.75 114.5,159.5C 105.458,182.175 109.792,202.009 127.5,219C 130.99,221.412 134.657,223.245 138.5,224.5C 106.833,224.5 75.1667,224.5 43.5,224.5C 48.4936,223.494 52.8269,221.161 56.5,217.5C 47.7869,208.111 38.6203,199.111 29,190.5C 24.0207,184.978 23.3541,178.978 27,172.5C 43.6667,155.833 60.3333,139.167 77,122.5C 77.6667,121.833 77.6667,121.167 77,120.5C 71.9679,116.73 66.4679,114.23 60.5,113C 42,131.5 23.5,150 5,168.5C 2.588,171.99 0.754663,175.657 -0.5,179.5C -0.5,140.833 -0.5,102.167 -0.5,63.5 Z"/></g>
<g><path style="opacity:1" fill="#070707" d="M 139.5,71.5 C 150.58,81.0762 161.247,91.2428 171.5,102C 168.494,102.332 165.66,103.166 163,104.5C 154,95.5 145,86.5 136,77.5C 135.333,76.8333 135.333,76.1667 136,75.5C 137.376,74.2949 138.542,72.9616 139.5,71.5 Z"/></g>
<g><path style="opacity:1" fill="#f1f1f1" d="M 103.5,107.5 C 109.362,107.662 110.695,110.162 107.5,115C 101.403,115.147 100.07,112.647 103.5,107.5 Z"/></g>
<g><path style="opacity:1" fill="#040404" d="M 43.5,224.5 C 40.8333,224.5 38.1667,224.5 35.5,224.5C 33.2585,223.379 30.9252,222.213 28.5,221C 20,212.5 11.5,204 3,195.5C 1.9066,192.691 0.739932,190.024 -0.5,187.5C -0.5,184.833 -0.5,182.167 -0.5,179.5C 0.754663,175.657 2.588,171.99 5,168.5C 23.5,150 42,131.5 60.5,113C 66.4679,114.23 71.9679,116.73 77,120.5C 77.6667,121.167 77.6667,121.833 77,122.5C 60.3333,139.167 43.6667,155.833 27,172.5C 23.3541,178.978 24.0207,184.978 29,190.5C 38.6203,199.111 47.7869,208.111 56.5,217.5C 52.8269,221.161 48.4936,223.494 43.5,224.5 Z"/></g>
<g><path style="opacity:1" fill="#fbfbfb" d="M 174.5,117.5 C 185.78,116.207 196.114,118.707 205.5,125C 209.092,127.921 211.925,131.421 214,135.5C 215.581,141.062 214.081,145.562 209.5,149C 193.105,154.526 178.938,151.026 167,138.5C 160.514,128.156 163.014,121.156 174.5,117.5 Z"/></g>
<g><path style="opacity:1" fill="#070707" d="M 75.5,135.5 C 85.5794,144.075 95.2461,153.242 104.5,163C 103.166,165.66 102.332,168.494 102,171.5C 92,161.5 82,151.5 72,141.5C 71.3333,140.833 71.3333,140.167 72,139.5C 73.3756,138.295 74.5423,136.962 75.5,135.5 Z"/></g>
<g><path style="opacity:1" fill="#070707" d="M 143.5,224.5 C 141.833,224.5 140.167,224.5 138.5,224.5C 134.657,223.245 130.99,221.412 127.5,219C 109.792,202.009 105.458,182.175 114.5,159.5C 112.36,151.75 110.027,144.083 107.5,136.5C 111.876,136.886 116.043,136.219 120,134.5C 122.592,140.022 124.925,145.689 127,151.5C 127.833,152.333 128.667,153.167 129.5,154C 133.928,154.697 137.928,156.363 141.5,159C 155.703,172.232 161.203,188.399 158,207.5C 156.49,216.165 151.657,221.832 143.5,224.5 Z"/></g>
<g><path style="opacity:1" fill="#0b0b0b" d="M 60.5,150.5 C 72.747,161.244 84.5803,172.577 96,184.5C 97.4767,188.998 95.9767,191.165 91.5,191C 80,179.5 68.5,168 57,156.5C 56.3333,155.833 56.3333,155.167 57,154.5C 58.3756,153.295 59.5423,151.962 60.5,150.5 Z"/></g>
<g><path style="opacity:1" fill="#fbfbfb" d="M 125.5,163.5 C 134.032,163.525 140.532,167.192 145,174.5C 151.874,185.527 153.207,197.194 149,209.5C 143.914,215.116 138.081,215.949 131.5,212C 117.882,199.494 114.382,184.661 121,167.5C 122.397,165.93 123.897,164.596 125.5,163.5 Z"/></g>
<g><path style="opacity:1" fill="#151515" d="M 45.5,165.5 C 57.4076,175.904 68.9076,186.904 80,198.5C 82.6713,204.821 80.8379,206.988 74.5,205C 63.3333,193.833 52.1667,182.667 41,171.5C 42.1378,169.487 43.6378,167.487 45.5,165.5 Z"/></g>
<g><path style="opacity:1" fill="#f9f9f9" d="M -0.5,187.5 C 0.739932,190.024 1.9066,192.691 3,195.5C 11.5,204 20,212.5 28.5,221C 30.9252,222.213 33.2585,223.379 35.5,224.5C 23.5,224.5 11.5,224.5 -0.5,224.5C -0.5,212.167 -0.5,199.833 -0.5,187.5 Z"/></g>
</svg>
